<?xml version="1.0" encoding="UTF-8" standalone="no"?>
<!-- Created with Inkscape (http://www.inkscape.org/) -->

<svg
   xmlns:dc="http://purl.org/dc/elements/1.1/"
   xmlns:cc="http://creativecommons.org/ns#"
   xmlns:rdf="http://www.w3.org/1999/02/22-rdf-syntax-ns#"
   xmlns:svg="http://www.w3.org/2000/svg"
   xmlns="http://www.w3.org/2000/svg"
   xmlns:sodipodi="http://sodipodi.sourceforge.net/DTD/sodipodi-0.dtd"
   xmlns:inkscape="http://www.inkscape.org/namespaces/inkscape"
   width="36"
   height="36"
   viewBox="0 0 36 36.000001"
   id="svg2"
   version="1.1"
   inkscape:version="0.91 r13725"
   sodipodi:docname="login_press.svg">
  <defs
     id="defs4" />
  <sodipodi:namedview
     id="base"
     pagecolor="#5b5b5b"
     bordercolor="#66ea66"
     borderopacity="1"
     inkscape:pageopacity="0"
     inkscape:pageshadow="2"
     inkscape:zoom="13"
     inkscape:cx="8.4077559"
     inkscape:cy="20.603714"
     inkscape:document-units="px"
     inkscape:current-layer="layer1"
     showgrid="true"
     inkscape:window-width="2560"
     inkscape:window-height="916"
     inkscape:window-x="0"
     inkscape:window-y="0"
     inkscape:window-maximized="1"
     inkscape:showpageshadow="false"
     borderlayer="true"
     units="px"
     showguides="true"
     inkscape:guide-bbox="true"
     fit-margin-top="0"
     fit-margin-left="0"
     fit-margin-right="0"
     fit-margin-bottom="0">
    <inkscape:grid
       type="xygrid"
       id="grid4155"
       empspacing="2"
       originx="2"
       originy="1.9999653" />
    <sodipodi:guide
       position="4,31.999984"
       orientation="28,0"
       id="guide4159" />
    <sodipodi:guide
       position="4,3.9999827"
       orientation="0,28"
       id="guide4161" />
    <sodipodi:guide
       position="32,3.9999827"
       orientation="-28,0"
       id="guide4163" />
    <sodipodi:guide
       position="32,31.999984"
       orientation="0,-28"
       id="guide4165" />
    <sodipodi:guide
       position="18,21.999967"
       orientation="1,0"
       id="guide4223" />
    <sodipodi:guide
       position="18,17.999966"
       orientation="0,1"
       id="guide4225" />
  </sodipodi:namedview>
  <metadata
     id="metadata7">
    <rdf:RDF>
      <cc:Work
         rdf:about="">
        <dc:format>image/svg+xml</dc:format>
        <dc:type
           rdf:resource="http://purl.org/dc/dcmitype/StillImage" />
        <dc:title />
      </cc:Work>
    </rdf:RDF>
  </metadata>
  <g
     inkscape:label="Layer 1"
     inkscape:groupmode="layer"
     id="layer1"
     transform="translate(2,-1018.3622)">
    <path
       style="fill:#4caf50;fill-opacity:1;stroke:none"
       d="M 0 0 L 0 3.8574219 L 0 32.142578 L 0 36 L 3.8574219 36 L 5 36 L 32.142578 36 C 34.279448 36 36 34.279448 36 32.142578 L 36 3.8574219 C 36 1.7205521 34.279448 0 32.142578 0 L 5 0 L 3.8574219 0 L 0 0 z "
       transform="translate(-2,1018.3622)"
       id="rect3361" />
    <path
       style="fill:#66bb6a;fill-opacity:1;stroke:none"
       d="M 1 1 L 1 3.6152344 L 1 32.384766 L 1 35 L 3.6152344 35 L 6 35 L 32.384766 35 C 33.833701 35 35 33.833701 35 32.384766 L 35 3.6152344 C 35 2.1662988 33.833701 1 32.384766 1 L 6 1 L 3.6152344 1 L 1 1 z "
       transform="translate(-2,1018.3622)"
       id="rect3363" />
    <path
       style="opacity:1;fill:#2e7d32;fill-opacity:1;stroke:none;stroke-width:2;stroke-linecap:round;stroke-linejoin:round;stroke-miterlimit:4;stroke-dasharray:none;stroke-opacity:1"
       d="m 17.943792,1032.3639 c -0.529345,0.03 -0.943146,0.468 -0.943405,0.998 l 0,1 -7.000338,0 c -0.554037,0 -1.0000485,0.446 -1.0000485,1 l 0,2 c 0,0.554 0.4460115,1 1.0000485,1 l 7.000338,0 0,0.998 c -2.53e-4,0.8238 0.940073,1.2946 1.599686,0.8008 l 4.000193,-3 c 0.532979,-0.4 0.532979,-1.1995 0,-1.5996 l -4.000193,-2.998 c -0.188466,-0.1417 -0.420851,-0.2121 -0.656281,-0.1992 z"
       id="rect4201-2"
       inkscape:connector-curvature="0" />
  </g>
</svg>
